<svg width="97" height="72" viewBox="0 0 97 72" fill="none" xmlns="http://www.w3.org/2000/svg">
<path d="M89 16.84L87.5232 12.6174C87.3638 12.1616 86.9014 11.8848 86.4244 11.9596L38.622 19.4544C38.3574 19.4958 38.0873 19.4295 37.8721 19.2702L12.2826 0.325992C12.0083 0.122905 11.6493 0.0737641 11.3305 0.19565L2 3.76278L33.0641 22.9249L40.8709 24L89 16.84Z" fill="#CBEDE1"/>
<path d="M38.9435 70.8714L46.9656 72L78.0858 68.1353L96.064 65.2746C96.5889 65.1911 96.9567 64.7116 96.9014 64.1831L94.8043 44.1265L91.7118 15.9883C91.6494 15.4204 91.1248 15.0201 90.5606 15.1099L41 23L33.3505 22.204L1.74404 3.05655C1.03316 2.6259 0.137681 3.20008 0.232416 4.02583L5.84401 52.9387C5.88167 53.267 6.07904 53.5554 6.37135 53.7094L38.9435 70.8714Z" fill="#F0B267"/>
<path d="M39 71L33 22L41 23L47 72L39 71Z" fill="#D88045"/>
</svg>
