<svg width="151" height="101" viewBox="0 0 151 101" fill="none" xmlns="http://www.w3.org/2000/svg">
<rect x="-0.5" y="0.5" width="49.1014" height="49.1014" transform="matrix(-1 0 0 1 99.2028 0)" stroke="url(#paint0_linear_2_21)"/>
<rect x="-0.5" y="0.5" width="49.1014" height="49.1014" transform="matrix(-1 0 0 1 99.2028 49.4055)" stroke="#DE8C4D"/>
<rect x="-0.5" y="0.5" width="49.1014" height="49.1014" transform="matrix(-1 0 0 1 49.1014 0)" stroke="url(#paint1_linear_2_21)"/>
<rect x="-0.5" y="0.5" width="49.1014" height="49.1014" transform="matrix(-1 0 0 1 49.1014 50.1014)" stroke="url(#paint2_linear_2_21)"/>
<rect x="-0.5" y="0.5" width="49.1014" height="49.1014" transform="matrix(-1 0 0 1 149.304 49.4055)" stroke="url(#paint3_linear_2_21)"/>
<rect x="-0.5" y="0.5" width="50.4931" height="49.1014" transform="matrix(-1 0 0 1 150 0)" stroke="url(#paint4_linear_2_21)"/>
<defs>
<linearGradient id="paint0_linear_2_21" x1="25.0507" y1="45.6051" x2="25.0507" y2="-4.80027e-07" gradientUnits="userSpaceOnUse">
<stop stop-color="#F5BA6B"/>
<stop offset="1" stop-color="white" stop-opacity="0"/>
</linearGradient>
<linearGradient id="paint1_linear_2_21" x1="-53.5806" y1="93.5922" x2="14.9608" y2="25.0507" gradientUnits="userSpaceOnUse">
<stop stop-color="#E39655"/>
<stop offset="1" stop-color="white" stop-opacity="0"/>
</linearGradient>
<linearGradient id="paint2_linear_2_21" x1="-53.5806" y1="93.5922" x2="14.9608" y2="25.0507" gradientUnits="userSpaceOnUse">
<stop stop-color="white"/>
<stop offset="1" stop-color="white" stop-opacity="0"/>
</linearGradient>
<linearGradient id="paint3_linear_2_21" x1="-53.5806" y1="93.5922" x2="14.9608" y2="25.0507" gradientUnits="userSpaceOnUse">
<stop stop-color="white"/>
<stop offset="1" stop-color="white" stop-opacity="0"/>
</linearGradient>
<linearGradient id="paint4_linear_2_21" x1="-4.957e-07" y1="80.7189" x2="-8.80964" y2="12.1148" gradientUnits="userSpaceOnUse">
<stop stop-color="#E39956"/>
<stop offset="1" stop-color="white" stop-opacity="0"/>
</linearGradient>
</defs>
</svg>
